# xmcd
#
# Track frame offsets: 
#        150
#        19247
#        36566
#        53602
#        74086
#        93219
#        111633
#        129742
#        146808
#        163001
#        182023
#        199374
#        218394
#        234535
#        253863
#        272300
#        291007
#        309454
#        327285
#
# Disc length: 4622 seconds
#
# Revision: 0
# Processed by: cddbd v1.5.2PL0 Copyright (c) Steve Scherf et al.
# Submitted via: ExactAudioCopy v0.95a5
#
DISCID=26120c13
DTITLE=Rick Vito - Lucky In Love - The Best Of
DYEAR=2009
DGENRE=Blues
TTITLE0=Mr. Lucky.wav
TTITLE1=Walk Another Mile.wav
TTITLE2=Desiree.wav
TTITLE3=Blues Town.wav
TTITLE4=Little Sheba.wav
TTITLE5=Rhumba Diablo.wav
TTITLE6=I Do Believe.wav
TTITLE7=I Loved Another Woman.wav
TTITLE8=Homework.wav
TTITLE9=Feels Just Like Home.wav
TTITLE10=Long Black Car.wav
TTITLE11=Meet Me At Midnight.wav
TTITLE12=Everybody Gets Lucky Sometime.wav
TTITLE13=Exotica By Night.wav
TTITLE14=Rattlesnake Shake.wav
TTITLE15=Black Crow Blues.wav
TTITLE16=Love Is Dangerous.wav
TTITLE17=Talk That Talk.wav
TTITLE18=A Change Is Gonna Come.wav
EXTD=
EXTT0=
EXTT1=
EXTT2=
EXTT3=
EXTT4=
EXTT5=
EXTT6=
EXTT7=
EXTT8=
EXTT9=
EXTT10=
EXTT11=
EXTT12=
EXTT13=
EXTT14=
EXTT15=
EXTT16=
EXTT17=
EXTT18=
PLAYORDER=
